<svg id="Ebene_1" data-name="Ebene 1" xmlns="http://www.w3.org/2000/svg" xmlns:xlink="http://www.w3.org/1999/xlink" viewBox="0 0 598.49 310.62"><defs><style>.cls-1,.cls-9{fill:none;}.cls-2{clip-path:url(#clip-path);}.cls-3{font-size:32px;font-family:HelveticaNeueLTCom-Roman, Helvetica Neue LT Com;}.cls-3,.cls-8{fill:#1d1d1b;}.cls-4{letter-spacing:0.02em;}.cls-5{letter-spacing:0.02em;}.cls-6{letter-spacing:0em;}.cls-7{letter-spacing:0.02em;}.cls-9{stroke:#1d1d1b;stroke-miterlimit:10;stroke-width:2.2px;}</style><clipPath id="clip-path" transform="translate(-63.44 30.87)"><rect class="cls-1" x="43.1" y="30.4" width="850.39" height="566.93"/></clipPath></defs><title>2018_zhdk_logo_D_schwarz_vorlage</title><g class="cls-2"><text class="cls-3" transform="translate(239.32 27.42)"><tspan class="cls-4">z</tspan><tspan class="cls-5" x="16" y="0">h</tspan><tspan class="cls-4" x="34.4" y="0">d</tspan><tspan class="cls-5" x="54.02" y="0">k_</tspan><tspan class="cls-4" x="87.84" y="0">logo_standa</tspan><tspan class="cls-6" x="270.3" y="0">r</tspan><tspan class="cls-7" x="281.02" y="0">d_</tspan><tspan x="317.28" y="0">E</tspan></text></g><path class="cls-8" d="M63.44,121.05,95.31,86.58h-30V69h57.89V84.37L91,120h33.69v17.57H63.44Z" transform="translate(-63.44 30.87)"/><path class="cls-8" d="M341,91.86h5.44v17.47h.13a7.61,7.61,0,0,1,1.83-2.56A10.68,10.68,0,0,1,351,105a13.64,13.64,0,0,1,3-1,15.49,15.49,0,0,1,3-.32,14.28,14.28,0,0,1,5.44.9,9,9,0,0,1,3.52,2.49,9.23,9.23,0,0,1,1.89,3.81,20.64,20.64,0,0,1,.55,4.9v21.76H363v-22.4a6.58,6.58,0,0,0-1.8-4.87,6.65,6.65,0,0,0-4.92-1.79,11.08,11.08,0,0,0-4.32.77,8,8,0,0,0-3,2.18,9.45,9.45,0,0,0-1.83,3.29,13.6,13.6,0,0,0-.61,4.13v18.69H341Z" transform="translate(-63.44 30.87)"/><path class="cls-8" d="M406.76,137.56h-5.44v-4.48h-.13a8.13,8.13,0,0,1-4.22,4,15.8,15.8,0,0,1-6.34,1.25,14.85,14.85,0,0,1-6.68-1.41,13.64,13.64,0,0,1-4.74-3.81,16.73,16.73,0,0,1-2.85-5.54,22.56,22.56,0,0,1-1-6.65,23,23,0,0,1,.93-6.63,16.15,16.15,0,0,1,2.82-5.47,13.33,13.33,0,0,1,4.73-3.74,15,15,0,0,1,6.63-1.38,16.2,16.2,0,0,1,2.75.26,14.21,14.21,0,0,1,2.94.86,13,13,0,0,1,2.79,1.6,8.72,8.72,0,0,1,2.2,2.47h.13v-17h5.44Zm-25.6-16.26a16.69,16.69,0,0,0,.61,4.51,12,12,0,0,0,1.86,3.94,9,9,0,0,0,3.2,2.75,9.6,9.6,0,0,0,4.57,1,9,9,0,0,0,7.81-3.94,11.87,11.87,0,0,0,1.76-4,19.55,19.55,0,0,0,0-9.25,11.64,11.64,0,0,0-1.83-4,9.28,9.28,0,0,0-3.23-2.78,10,10,0,0,0-4.8-1.06,9.34,9.34,0,0,0-4.7,1.09,8.84,8.84,0,0,0-3,2.88,12.72,12.72,0,0,0-1.67,4.1A21.76,21.76,0,0,0,381.16,121.3Z" transform="translate(-63.44 30.87)"/><path class="cls-8" d="M416.62,91.86h5.44v27.07l15.1-14.46h7.3l-13.12,12,14.08,21.06h-6.91l-11.33-17.28L422.06,125v12.55h-5.44Z" transform="translate(-63.44 30.87)"/><path class="cls-8" d="M250.77,211.63l12.43-15.52H251.72v-2.24h14.61v2.24l-12.4,15.52h12.74v2.24h-15.9Z" transform="translate(-63.44 30.87)"/><path class="cls-8" d="M281.59,213.87h-2.24v-2.3h-.05a5,5,0,0,1-1.95,2,5.68,5.68,0,0,1-2.76.64,6.34,6.34,0,0,1-2.38-.39,3.8,3.8,0,0,1-2.36-2.76,8.87,8.87,0,0,1-.24-2.14v-9.52H272v9.8a2.88,2.88,0,0,0,.78,2.13,2.93,2.93,0,0,0,2.16.78,4.91,4.91,0,0,0,1.89-.33,3.7,3.7,0,0,0,1.33-1,4.22,4.22,0,0,0,.8-1.44,6.07,6.07,0,0,0,.26-1.8v-8.18h2.38Zm-9.91-19.77h2.52V197h-2.52Zm5.27,0h2.52V197H277Z" transform="translate(-63.44 30.87)"/><path class="cls-8" d="M285.65,199.39h2.24v3.05H288a6.49,6.49,0,0,1,2.13-2.6,5.39,5.39,0,0,1,3.19-.79v2.52a6.6,6.6,0,0,0-2.44.4,3.84,3.84,0,0,0-1.62,1.14,4.85,4.85,0,0,0-.9,1.85,10.3,10.3,0,0,0-.28,2.47v6.44h-2.38Z" transform="translate(-63.44 30.87)"/><path class="cls-8" d="M305,204a3.62,3.62,0,0,0-1.19-2.13,3.67,3.67,0,0,0-2.4-.76,4.36,4.36,0,0,0-2.15.48,3.85,3.85,0,0,0-1.39,1.26,5.15,5.15,0,0,0-.74,1.81,9.74,9.74,0,0,0-.23,2.11,8,8,0,0,0,.24,2,5.39,5.39,0,0,0,.74,1.69,3.66,3.66,0,0,0,1.31,1.19,4.46,4.46,0,0,0,4.69-.49,4.15,4.15,0,0,0,1.23-2.59h2.43a6.73,6.73,0,0,1-2,4.15,6.24,6.24,0,0,1-4.37,1.48,7.47,7.47,0,0,1-2.93-.54,5.81,5.81,0,0,1-2.12-1.53,6.48,6.48,0,0,1-1.29-2.34,9.71,9.71,0,0,1-.44-3,10.64,10.64,0,0,1,.42-3,7,7,0,0,1,1.28-2.46,6,6,0,0,1,2.13-1.65,6.82,6.82,0,0,1,3-.61,8.6,8.6,0,0,1,2.31.3,5.72,5.72,0,0,1,1.91.91,4.72,4.72,0,0,1,1.36,1.55,5.78,5.78,0,0,1,.66,2.23Z" transform="translate(-63.44 30.87)"/><path class="cls-8" d="M310.71,193.87h2.38v7.65h.06a3.29,3.29,0,0,1,.8-1.12,4.27,4.27,0,0,1,1.13-.77,5.86,5.86,0,0,1,1.3-.44,6.92,6.92,0,0,1,1.33-.14,6.06,6.06,0,0,1,2.38.4,3.81,3.81,0,0,1,1.54,1.09,4.06,4.06,0,0,1,.83,1.66,9,9,0,0,1,.24,2.15v9.52h-2.38v-9.8a2.84,2.84,0,0,0-.79-2.13,2.92,2.92,0,0,0-2.15-.79,4.91,4.91,0,0,0-1.89.34,3.48,3.48,0,0,0-1.33.95,4.06,4.06,0,0,0-.8,1.44,5.82,5.82,0,0,0-.27,1.81v8.18h-2.38Z" transform="translate(-63.44 30.87)"/><path class="cls-8" d="M339.22,209.27a5.87,5.87,0,0,1-2.11,3.67A6.48,6.48,0,0,1,333,214.2a7.33,7.33,0,0,1-3-.57,6.1,6.1,0,0,1-2.15-1.58,6.75,6.75,0,0,1-1.3-2.41,11.32,11.32,0,0,1-.49-3,8.6,8.6,0,0,1,.5-3,7.32,7.32,0,0,1,1.41-2.4,6.45,6.45,0,0,1,4.89-2.13,6,6,0,0,1,3.21.8,6.28,6.28,0,0,1,2,2,8,8,0,0,1,1.06,2.69,11.17,11.17,0,0,1,.24,2.77H328.58a5.66,5.66,0,0,0,.22,1.81,4.16,4.16,0,0,0,.81,1.51,4,4,0,0,0,1.43,1.05,5,5,0,0,0,2,.39,4.14,4.14,0,0,0,2.47-.7,3.36,3.36,0,0,0,1.29-2.13Zm-2.33-4a4.75,4.75,0,0,0-.38-1.59,3.86,3.86,0,0,0-2.17-2.17,4,4,0,0,0-1.62-.33,4.08,4.08,0,0,0-1.67.33,3.67,3.67,0,0,0-1.27.88,4.4,4.4,0,0,0-.84,1.3,4.62,4.62,0,0,0-.36,1.58Z" transform="translate(-63.44 30.87)"/><path class="cls-8" d="M342.35,199.39h2.24v3.05h.06a6.49,6.49,0,0,1,2.13-2.6,5.39,5.39,0,0,1,3.19-.79v2.52a6.56,6.56,0,0,0-2.44.4,3.84,3.84,0,0,0-1.62,1.14A4.85,4.85,0,0,0,345,205a10.3,10.3,0,0,0-.28,2.47v6.44h-2.38Z" transform="translate(-63.44 30.87)"/><path class="cls-8" d="M361.06,193.87h2.66v8.6h10.52v-8.6h2.66v20h-2.66v-9.16H363.72v9.16h-2.66Z" transform="translate(-63.44 30.87)"/><path class="cls-8" d="M380.66,206.64a9.59,9.59,0,0,1,.44-3,6.78,6.78,0,0,1,1.35-2.41,6.28,6.28,0,0,1,2.2-1.61,7.31,7.31,0,0,1,3-.59,7.41,7.41,0,0,1,3,.59,6.41,6.41,0,0,1,2.21,1.61,6.76,6.76,0,0,1,1.34,2.41,9.59,9.59,0,0,1,.45,3,9.43,9.43,0,0,1-.45,3,6.76,6.76,0,0,1-1.34,2.39,6.28,6.28,0,0,1-2.21,1.61,7.25,7.25,0,0,1-3,.59,7.16,7.16,0,0,1-3-.59,6.16,6.16,0,0,1-2.2-1.61,6.78,6.78,0,0,1-1.35-2.39A9.44,9.44,0,0,1,380.66,206.64Zm2.52,0a7,7,0,0,0,.35,2.34,4.89,4.89,0,0,0,1,1.71,4.12,4.12,0,0,0,1.44,1.05,4.43,4.43,0,0,0,3.5,0,4.25,4.25,0,0,0,1.45-1.05,4.89,4.89,0,0,0,1-1.71,8,8,0,0,0,0-4.68,5,5,0,0,0-1-1.72,4.28,4.28,0,0,0-1.45-1.06,4.32,4.32,0,0,0-3.5,0,4.14,4.14,0,0,0-1.44,1.06,5,5,0,0,0-1,1.72A7.06,7.06,0,0,0,383.18,206.64Z" transform="translate(-63.44 30.87)"/><path class="cls-8" d="M407.9,204a3.57,3.57,0,0,0-1.19-2.13,3.66,3.66,0,0,0-2.39-.76,4.42,4.42,0,0,0-2.16.48,3.93,3.93,0,0,0-1.39,1.26,5.35,5.35,0,0,0-.74,1.81,9.75,9.75,0,0,0-.22,2.11,8,8,0,0,0,.24,2,5,5,0,0,0,.74,1.69,3.63,3.63,0,0,0,1.3,1.19,3.91,3.91,0,0,0,2,.45,3.85,3.85,0,0,0,2.74-.94,4.15,4.15,0,0,0,1.23-2.59h2.44a6.74,6.74,0,0,1-2,4.15,6.22,6.22,0,0,1-4.37,1.48,7.42,7.42,0,0,1-2.92-.54,5.94,5.94,0,0,1-2.13-1.53,6.48,6.48,0,0,1-1.29-2.34,9.71,9.71,0,0,1-.43-3,10.64,10.64,0,0,1,.42-3,7,7,0,0,1,1.27-2.46,6,6,0,0,1,2.13-1.65,6.85,6.85,0,0,1,3-.61,8.6,8.6,0,0,1,2.31.3,5.68,5.68,0,0,1,1.92.91,4.84,4.84,0,0,1,1.36,1.55,6,6,0,0,1,.65,2.23Z" transform="translate(-63.44 30.87)"/><path class="cls-8" d="M413.67,193.87h2.38v7.65h.05a3.43,3.43,0,0,1,.8-1.12,4.32,4.32,0,0,1,1.14-.77,5.69,5.69,0,0,1,1.3-.44,6.83,6.83,0,0,1,1.33-.14,6.13,6.13,0,0,1,2.38.4,4,4,0,0,1,1.54,1.09,4,4,0,0,1,.82,1.66,9,9,0,0,1,.24,2.15v9.52h-2.38v-9.8a2.88,2.88,0,0,0-.78-2.13,2.94,2.94,0,0,0-2.16-.79,4.91,4.91,0,0,0-1.89.34,3.56,3.56,0,0,0-1.33.95,4.22,4.22,0,0,0-.8,1.44,6.14,6.14,0,0,0-.26,1.81v8.18h-2.38Z" transform="translate(-63.44 30.87)"/><path class="cls-8" d="M431.25,209.3a2.75,2.75,0,0,0,.36,1.35,2.59,2.59,0,0,0,.89.85,3.92,3.92,0,0,0,1.23.46,6.61,6.61,0,0,0,1.41.14,9.75,9.75,0,0,0,1.18-.08,4.36,4.36,0,0,0,1.13-.31,2.16,2.16,0,0,0,.86-.66,1.78,1.78,0,0,0,.33-1.1,1.6,1.6,0,0,0-.4-1.14,3,3,0,0,0-1.07-.71,7.92,7.92,0,0,0-1.51-.46l-1.75-.38a15.87,15.87,0,0,1-1.74-.48,6,6,0,0,1-1.51-.73,3.65,3.65,0,0,1-1-4.76,4.13,4.13,0,0,1,1.26-1.27,5.66,5.66,0,0,1,1.74-.73,7.87,7.87,0,0,1,1.91-.24,11.5,11.5,0,0,1,2.26.21,5.43,5.43,0,0,1,1.85.73,3.82,3.82,0,0,1,1.27,1.4,5.34,5.34,0,0,1,.56,2.2h-2.38a2.28,2.28,0,0,0-.38-1.16,2.39,2.39,0,0,0-.78-.74,3.28,3.28,0,0,0-1-.41,5.65,5.65,0,0,0-1.16-.13,6.56,6.56,0,0,0-1.08.09,3.45,3.45,0,0,0-1,.29,2.11,2.11,0,0,0-.73.58,1.44,1.44,0,0,0-.28.9,1.35,1.35,0,0,0,.43,1.05,3.71,3.71,0,0,0,1.11.66,9.31,9.31,0,0,0,1.51.45l1.68.38c.6.13,1.18.29,1.75.47a6.07,6.07,0,0,1,1.51.74,3.71,3.71,0,0,1,1.07,1.16,3.41,3.41,0,0,1,.4,1.73,4.09,4.09,0,0,1-.54,2.17,4.25,4.25,0,0,1-1.43,1.4,6.1,6.1,0,0,1-2,.76,11,11,0,0,1-2.2.22,10,10,0,0,1-2.31-.26,6,6,0,0,1-1.92-.84,4.29,4.29,0,0,1-1.34-1.52,5.18,5.18,0,0,1-.56-2.28Z" transform="translate(-63.44 30.87)"/><path class="cls-8" d="M454.18,204a3.52,3.52,0,0,0-1.19-2.13,3.62,3.62,0,0,0-2.39-.76,4.42,4.42,0,0,0-2.16.48,3.82,3.82,0,0,0-1.38,1.26,5.16,5.16,0,0,0-.75,1.81,10.41,10.41,0,0,0-.22,2.11,8,8,0,0,0,.24,2,5.17,5.17,0,0,0,.74,1.69,3.71,3.71,0,0,0,1.3,1.19,3.91,3.91,0,0,0,1.95.45,3.83,3.83,0,0,0,2.74-.94,4.09,4.09,0,0,0,1.23-2.59h2.44a6.69,6.69,0,0,1-2,4.15,6.19,6.19,0,0,1-4.36,1.48,7.47,7.47,0,0,1-2.93-.54,5.94,5.94,0,0,1-2.13-1.53,6.48,6.48,0,0,1-1.29-2.34,9.71,9.71,0,0,1-.43-3,10.64,10.64,0,0,1,.42-3,7,7,0,0,1,1.27-2.46,6,6,0,0,1,2.13-1.65,6.88,6.88,0,0,1,3-.61,8.6,8.6,0,0,1,2.31.3,5.68,5.68,0,0,1,1.92.91,4.84,4.84,0,0,1,1.36,1.55,6.14,6.14,0,0,1,.66,2.23Z" transform="translate(-63.44 30.87)"/><path class="cls-8" d="M460,193.87h2.38v7.65h.06a3.26,3.26,0,0,1,.79-1.12,4.49,4.49,0,0,1,1.14-.77,5.69,5.69,0,0,1,1.3-.44,6.92,6.92,0,0,1,1.33-.14,6.1,6.1,0,0,1,2.38.4,3.88,3.88,0,0,1,1.54,1.09,4.06,4.06,0,0,1,.83,1.66,9.51,9.51,0,0,1,.23,2.15v9.52h-2.38v-9.8a2.88,2.88,0,0,0-.78-2.13,2.92,2.92,0,0,0-2.16-.79,5,5,0,0,0-1.89.34,3.56,3.56,0,0,0-1.33.95,4,4,0,0,0-.79,1.44,5.82,5.82,0,0,0-.27,1.81v8.18H460Z" transform="translate(-63.44 30.87)"/><path class="cls-8" d="M488.06,213.87h-2.24v-2.3h-.05a5,5,0,0,1-1.95,2,5.68,5.68,0,0,1-2.76.64,6.34,6.34,0,0,1-2.38-.39,3.8,3.8,0,0,1-2.36-2.76,8.87,8.87,0,0,1-.24-2.14v-9.52h2.38v9.8a2.88,2.88,0,0,0,.78,2.13,2.92,2.92,0,0,0,2.16.78,4.91,4.91,0,0,0,1.89-.33,3.7,3.7,0,0,0,1.33-1,4.22,4.22,0,0,0,.8-1.44,6.07,6.07,0,0,0,.26-1.8v-8.18h2.38Z" transform="translate(-63.44 30.87)"/><path class="cls-8" d="M492.35,193.87h2.38v20h-2.38Z" transform="translate(-63.44 30.87)"/><path class="cls-8" d="M511.36,209.27a5.87,5.87,0,0,1-2.11,3.67,6.48,6.48,0,0,1-4.09,1.26,7.36,7.36,0,0,1-3-.57,6.1,6.1,0,0,1-2.15-1.58,6.75,6.75,0,0,1-1.3-2.41,11.73,11.73,0,0,1-.49-3,8.84,8.84,0,0,1,.5-3,7.17,7.17,0,0,1,1.42-2.4,6.46,6.46,0,0,1,2.15-1.57,6.63,6.63,0,0,1,2.73-.56,6,6,0,0,1,3.21.8,6.28,6.28,0,0,1,2,2,8,8,0,0,1,1.07,2.69,11.64,11.64,0,0,1,.23,2.77H500.72a5.66,5.66,0,0,0,.22,1.81,4.16,4.16,0,0,0,.81,1.51,4,4,0,0,0,1.43,1.05,5,5,0,0,0,2.05.39,4.09,4.09,0,0,0,2.46-.7,3.36,3.36,0,0,0,1.29-2.13Zm-2.33-4a4.74,4.74,0,0,0-.37-1.59,4.28,4.28,0,0,0-.87-1.31,4.15,4.15,0,0,0-1.3-.86,4.26,4.26,0,0,0-3.29,0,3.71,3.71,0,0,0-1.28.88,4.4,4.4,0,0,0-.84,1.3,5.13,5.13,0,0,0-.36,1.58Z" transform="translate(-63.44 30.87)"/><path class="cls-8" d="M535.86,213.87h-2.38v-2h-.06a3.59,3.59,0,0,1-1.85,1.75,7,7,0,0,1-2.77.54,6.51,6.51,0,0,1-2.92-.61,5.89,5.89,0,0,1-2.08-1.67,7.39,7.39,0,0,1-1.24-2.42,9.94,9.94,0,0,1-.42-2.91,10.06,10.06,0,0,1,.4-2.9,7,7,0,0,1,1.24-2.4,5.84,5.84,0,0,1,2.07-1.63,6.45,6.45,0,0,1,2.9-.61,6.59,6.59,0,0,1,1.2.12,6.26,6.26,0,0,1,1.29.37,5.74,5.74,0,0,1,1.22.7,3.84,3.84,0,0,1,1,1.08h.06v-7.45h2.38Zm-11.2-7.12a7.74,7.74,0,0,0,.26,2,5.26,5.26,0,0,0,.82,1.72,3.88,3.88,0,0,0,1.4,1.2,4.22,4.22,0,0,0,2,.45,3.89,3.89,0,0,0,3.41-1.72,5,5,0,0,0,.77-1.75,8.49,8.49,0,0,0,0-4,5.1,5.1,0,0,0-.8-1.75,4,4,0,0,0-1.41-1.21,4.4,4.4,0,0,0-2.1-.47,4.05,4.05,0,0,0-2.06.48,3.92,3.92,0,0,0-1.33,1.26,5.4,5.4,0,0,0-.73,1.79A9.44,9.44,0,0,0,524.66,206.75Z" transform="translate(-63.44 30.87)"/><path class="cls-8" d="M552.46,209.27a5.9,5.9,0,0,1-2.1,3.67,6.51,6.51,0,0,1-4.1,1.26,7.36,7.36,0,0,1-3-.57,6.06,6.06,0,0,1-2.14-1.58,6.77,6.77,0,0,1-1.31-2.41,11.73,11.73,0,0,1-.49-3,8.61,8.61,0,0,1,.51-3,7,7,0,0,1,1.41-2.4,6.5,6.5,0,0,1,2.16-1.57,6.63,6.63,0,0,1,2.73-.56,6,6,0,0,1,3.2.8,6.41,6.41,0,0,1,2.05,2,8.18,8.18,0,0,1,1.06,2.69,11.67,11.67,0,0,1,.24,2.77H541.82a5.66,5.66,0,0,0,.23,1.81,3.88,3.88,0,0,0,.81,1.51,3.94,3.94,0,0,0,1.43,1.05,4.92,4.92,0,0,0,2,.39,4.09,4.09,0,0,0,2.46-.7,3.28,3.28,0,0,0,1.29-2.13Zm-2.32-4a5,5,0,0,0-.38-1.59,4.11,4.11,0,0,0-.87-1.31,4.25,4.25,0,0,0-4.59-.86,3.58,3.58,0,0,0-1.27.88,4,4,0,0,0-.84,1.3,4.87,4.87,0,0,0-.37,1.58Z" transform="translate(-63.44 30.87)"/><path class="cls-8" d="M555.6,199.39h2.24v3.05h0a6.49,6.49,0,0,1,2.13-2.6,5.39,5.39,0,0,1,3.19-.79v2.52a6.51,6.51,0,0,0-2.43.4,3.82,3.82,0,0,0-1.63,1.14,4.69,4.69,0,0,0-.89,1.85,9.81,9.81,0,0,0-.28,2.47v6.44H555.6Z" transform="translate(-63.44 30.87)"/><path class="cls-8" d="M574.3,193.87H577v10l10.14-10h3.44l-8.43,8.07,8.77,11.93h-3.36l-7.23-10.11L577,206.87v7H574.3Z" transform="translate(-63.44 30.87)"/><path class="cls-8" d="M605.13,213.87h-2.24v-2.3h-.06a4.9,4.9,0,0,1-1.94,2,5.74,5.74,0,0,1-2.76.64,6.3,6.3,0,0,1-2.38-.39,3.91,3.91,0,0,1-1.54-1.09,4.1,4.1,0,0,1-.83-1.67,8.87,8.87,0,0,1-.24-2.14v-9.52h2.38v9.8a2.71,2.71,0,0,0,2.94,2.91,4.91,4.91,0,0,0,1.89-.33,3.53,3.53,0,0,0,1.33-1,4.06,4.06,0,0,0,.8-1.44,5.76,5.76,0,0,0,.27-1.8v-8.18h2.38Zm-9.91-19.77h2.52V197h-2.52Zm5.26,0H603V197h-2.52Z" transform="translate(-63.44 30.87)"/><path class="cls-8" d="M609.27,199.39h2.24v2.3h.06a4.9,4.9,0,0,1,1.94-2,5.74,5.74,0,0,1,2.76-.65,6.1,6.1,0,0,1,2.38.4,3.81,3.81,0,0,1,1.54,1.09,4.06,4.06,0,0,1,.83,1.66,9,9,0,0,1,.24,2.15v9.52h-2.38v-9.8a2.88,2.88,0,0,0-.79-2.13,2.92,2.92,0,0,0-2.15-.79,4.91,4.91,0,0,0-1.89.34,3.41,3.41,0,0,0-1.33.95,4.06,4.06,0,0,0-.8,1.44,5.82,5.82,0,0,0-.27,1.81v8.18h-2.38Z" transform="translate(-63.44 30.87)"/><path class="cls-8" d="M626.86,209.3a2.75,2.75,0,0,0,.36,1.35,2.56,2.56,0,0,0,.88.85,4.12,4.12,0,0,0,1.23.46,6.64,6.64,0,0,0,1.42.14,9.72,9.72,0,0,0,1.17-.08,4.55,4.55,0,0,0,1.14-.31,2.13,2.13,0,0,0,.85-.66,1.72,1.72,0,0,0,.34-1.1,1.61,1.61,0,0,0-.41-1.14,3,3,0,0,0-1.06-.71,7.92,7.92,0,0,0-1.51-.46l-1.75-.38a15.87,15.87,0,0,1-1.74-.48,6,6,0,0,1-1.51-.73,3.37,3.37,0,0,1-1.08-1.14,3.45,3.45,0,0,1-.41-1.74,3.56,3.56,0,0,1,.49-1.88,4.13,4.13,0,0,1,1.26-1.27,5.88,5.88,0,0,1,1.74-.73,7.89,7.89,0,0,1,1.92-.24,11.47,11.47,0,0,1,2.25.21,5.35,5.35,0,0,1,1.85.73,3.73,3.73,0,0,1,1.27,1.4,5.19,5.19,0,0,1,.56,2.2h-2.38a2.28,2.28,0,0,0-.37-1.16,2.53,2.53,0,0,0-.79-.74,3.22,3.22,0,0,0-1-.41,5.75,5.75,0,0,0-1.17-.13,6.53,6.53,0,0,0-1.07.09,3.43,3.43,0,0,0-1,.29,2.11,2.11,0,0,0-.73.58,1.51,1.51,0,0,0-.28.9,1.36,1.36,0,0,0,.44,1.05,3.78,3.78,0,0,0,1.1.66,9.44,9.44,0,0,0,1.52.45l1.68.38c.59.13,1.18.29,1.75.47a6.07,6.07,0,0,1,1.51.74,3.67,3.67,0,0,1,1.06,1.16,3.41,3.41,0,0,1,.41,1.73,4,4,0,0,1-.55,2.17,4.17,4.17,0,0,1-1.43,1.4,6,6,0,0,1-2,.76,11,11,0,0,1-2.2.22,10,10,0,0,1-2.31-.26,6,6,0,0,1-1.92-.84,4.19,4.19,0,0,1-1.34-1.52,5,5,0,0,1-.56-2.28Z" transform="translate(-63.44 30.87)"/><path class="cls-8" d="M643.26,199.39h2.89v2.1h-2.89v9a2.92,2.92,0,0,0,.07.67.69.69,0,0,0,.27.39,1,1,0,0,0,.55.18,7.15,7.15,0,0,0,.91.05h1.09v2.1h-1.82a8.82,8.82,0,0,1-1.58-.13,2.34,2.34,0,0,1-1.07-.46,2,2,0,0,1-.6-.95,5.56,5.56,0,0,1-.2-1.63v-9.21h-2.46v-2.1h2.46v-4.34h2.38Z" transform="translate(-63.44 30.87)"/><path class="cls-8" d="M661.72,209.27a5.87,5.87,0,0,1-2.11,3.67,6.48,6.48,0,0,1-4.09,1.26,7.33,7.33,0,0,1-3-.57,6.1,6.1,0,0,1-2.15-1.58,6.75,6.75,0,0,1-1.3-2.41,11.32,11.32,0,0,1-.49-3,8.6,8.6,0,0,1,.5-3,7.32,7.32,0,0,1,1.41-2.4,6.45,6.45,0,0,1,4.89-2.13,6,6,0,0,1,3.21.8,6.28,6.28,0,0,1,2,2,8,8,0,0,1,1.06,2.69,11.17,11.17,0,0,1,.24,2.77H651.08a5.66,5.66,0,0,0,.22,1.81,4.16,4.16,0,0,0,.81,1.51,4,4,0,0,0,1.43,1.05,5,5,0,0,0,2,.39,4.14,4.14,0,0,0,2.47-.7,3.36,3.36,0,0,0,1.29-2.13Zm-2.33-4a4.75,4.75,0,0,0-.38-1.59,3.86,3.86,0,0,0-2.17-2.17,4,4,0,0,0-1.62-.33,4.08,4.08,0,0,0-1.67.33,3.67,3.67,0,0,0-1.27.88,4.4,4.4,0,0,0-.84,1.3,4.62,4.62,0,0,0-.36,1.58Z" transform="translate(-63.44 30.87)"/><line class="cls-9" x1="188.13" y1="77.13" x2="215.57" y2="77.13"/><line class="cls-9" x1="188.13" y1="201.07" x2="215.57" y2="201.07"/><line class="cls-9" x1="188.13" y1="273.42" x2="215.57" y2="273.42"/><line class="cls-9" x1="188.13" y1="309.52" x2="215.57" y2="309.52"/></svg>