<?xml version="1.0" standalone="no"?>
<!DOCTYPE svg PUBLIC "-//W3C//DTD SVG 20010904//EN"
 "http://www.w3.org/TR/2001/REC-SVG-20010904/DTD/svg10.dtd">
<svg version="1.0" xmlns="http://www.w3.org/2000/svg"
 width="2112.000000pt" height="2112.000000pt" viewBox="0 0 2112.000000 2112.000000"
 preserveAspectRatio="xMidYMid meet">
<metadata>
Created by potrace 1.14, written by Peter Selinger 2001-2017
</metadata>
<g transform="translate(0.000000,2112.000000) scale(0.100000,-0.100000)"
fill="#000000" stroke="none">
<path d="M5844 21086 c-4 -11 -7 -57 -5 -101 1 -44 1 -87 1 -95 0 -8 0 -49 0
-90 1 -41 1 -81 0 -87 0 -18 0 -45 1 -63 1 -13 263 -15 2298 -14 1263 0 2301
3 2307 6 5 4 9 96 9 235 l-1 228 -2301 1 -2302 2 -7 -22z"/>
<path d="M5939 17666 c-1 0 -2 -634 -3 -1409 -1 -931 2 -1407 9 -1408 6 -1 21
-3 35 -4 14 -1 30 -3 35 -5 6 -1 15 -1 20 0 29 8 175 4 175 -5 0 -7 3 -7 8 0
9 13 145 13 154 0 5 -7 8 -7 8 0 0 12 138 14 156 2 6 -3 14 -3 18 0 10 10 457
10 463 0 2 -4 10 -4 16 0 16 10 458 10 464 0 2 -4 10 -4 16 0 16 10 458 10
464 0 2 -4 10 -4 16 0 16 10 458 10 464 0 2 -4 10 -4 16 0 19 12 617 10 617
-2 0 -6 3 -6 8 0 9 13 145 13 154 0 5 -7 8 -7 8 0 0 13 150 13 150 0 0 -7 3
-7 8 0 9 13 152 13 152 0 0 -7 3 -7 8 0 9 13 145 13 154 0 5 -7 8 -7 8 0 0 13
150 13 150 0 0 -6 3 -6 8 0 9 13 145 13 154 0 5 -7 8 -7 8 0 0 13 150 13 150
0 0 -6 3 -6 8 0 9 13 532 14 532 2 0 -5 -6 -14 -12 -22 -21 -22 -191 -204
-223 -239 -16 -18 -76 -83 -133 -144 -162 -174 -182 -196 -182 -204 0 -5 -7
-8 -15 -8 -8 0 -15 -4 -15 -10 0 -5 -17 -27 -37 -49 -21 -21 -81 -85 -133
-142 -52 -56 -114 -122 -137 -147 -24 -24 -43 -45 -43 -47 0 -1 -19 -23 -42
-47 -37 -38 -163 -174 -268 -288 -18 -19 -80 -87 -138 -150 -59 -62 -132 -141
-162 -174 -30 -32 -68 -74 -85 -91 -16 -18 -70 -77 -120 -131 -89 -97 -204
-221 -257 -276 -16 -16 -28 -33 -28 -39 0 -6 -4 -7 -10 -4 -5 3 -10 3 -10 -2
0 -8 -21 -31 -149 -169 -36 -39 -109 -117 -161 -174 -52 -56 -111 -119 -130
-140 -70 -75 -228 -246 -281 -304 -30 -33 -74 -81 -99 -107 -25 -26 -79 -84
-120 -129 -41 -45 -95 -103 -120 -130 -25 -26 -83 -90 -130 -140 -47 -51 -107
-117 -135 -146 -27 -29 -79 -85 -115 -124 -36 -40 -87 -96 -115 -125 -27 -28
-88 -94 -135 -145 -47 -51 -103 -111 -125 -135 -22 -23 -76 -81 -120 -130 -44
-48 -100 -109 -125 -135 -25 -26 -83 -89 -130 -140 -47 -51 -114 -124 -151
-162 -36 -37 -64 -68 -62 -68 1 0 -12 -15 -30 -34 -17 -18 -77 -82 -132 -142
-55 -59 -121 -130 -147 -157 -27 -28 -48 -51 -48 -53 0 -2 -24 -28 -52 -58
-29 -29 -91 -96 -138 -147 -47 -51 -91 -98 -97 -105 -10 -10 -13 -291 -13
-1338 l0 -1326 4920 0 4920 0 0 1413 0 1412 -2697 -1 c-1484 0 -2701 1 -2706
3 -4 3 5 17 20 31 16 15 62 65 103 111 98 109 104 115 180 201 36 40 79 87 95
105 39 42 175 192 197 217 36 41 135 151 168 187 19 20 67 72 105 115 39 43
86 96 105 117 19 21 62 68 95 105 33 37 74 82 90 99 17 18 57 63 90 101 33 37
74 82 90 100 17 17 62 67 100 109 39 43 81 90 95 105 14 15 54 61 90 101 36
40 81 90 100 110 19 20 55 60 80 89 25 28 59 66 75 84 38 40 174 190 214 236
17 19 31 38 31 43 0 4 7 7 15 7 8 0 15 5 15 10 0 6 12 23 28 38 15 16 56 61
92 102 36 40 80 89 98 109 19 19 59 64 90 99 31 36 71 79 87 97 17 18 66 72
110 121 78 87 97 107 171 189 20 22 50 56 68 75 17 19 69 78 116 130 47 52 99
108 115 126 17 17 55 60 86 95 32 35 74 83 95 106 22 23 64 69 94 104 30 34
71 79 90 99 19 21 62 68 95 105 33 38 74 83 91 102 18 18 56 60 85 94 30 33
71 79 92 102 20 22 37 45 37 49 0 4 7 8 15 8 8 0 15 4 15 8 0 4 26 37 58 72
31 35 69 77 85 94 15 17 27 34 27 38 0 3 9 10 20 13 11 3 20 12 20 18 0 7 8
19 18 28 9 8 49 51 87 94 83 93 155 172 211 231 22 24 53 60 70 79 16 20 52
60 79 89 28 29 75 81 105 116 30 34 69 77 85 95 17 17 60 65 96 106 37 41 77
86 90 100 49 53 125 137 152 167 l27 32 0 1234 0 1234 -4645 0 c-2555 0 -4645
-1 -4646 -2z"/>
<path d="M5820 3495 c0 -129 3 -235 8 -235 12 -1 4494 -1 4552 -1 l55 1 -1
223 c-1 122 -2 228 -3 235 -1 9 -469 12 -2306 12 l-2305 0 0 -235z"/>
<path d="M5824 471 c-3 -3 -4 -101 -4 -218 1 -117 -1 -217 -4 -222 -4 -5 -1
-13 6 -18 14 -9 4607 -13 4609 -4 1 3 2 107 3 230 1 183 -2 225 -13 229 -17 6
-4591 9 -4597 3z"/>
</g>
</svg>
